<?xml version="1.0" encoding="UTF-8" standalone="no"?>
<!-- Created with Inkscape (http://www.inkscape.org/) -->

<svg
   xmlns:dc="http://purl.org/dc/elements/1.1/"
   xmlns:cc="http://creativecommons.org/ns#"
   xmlns:rdf="http://www.w3.org/1999/02/22-rdf-syntax-ns#"
   xmlns:svg="http://www.w3.org/2000/svg"
   xmlns="http://www.w3.org/2000/svg"
   xmlns:sodipodi="http://sodipodi.sourceforge.net/DTD/sodipodi-0.dtd"
   xmlns:inkscape="http://www.inkscape.org/namespaces/inkscape"
   version="1.1"
   id="svg834"
   xml:space="preserve"
   width="320"
   height="320"
   viewBox="0 0 320 320"
   sodipodi:docname="handv2.svg"
   inkscape:version="0.92.2 2405546, 2018-03-11"><metadata
     id="metadata840"><rdf:RDF><cc:Work
         rdf:about=""><dc:format>image/svg+xml</dc:format><dc:type
           rdf:resource="http://purl.org/dc/dcmitype/StillImage" /><dc:title /></cc:Work></rdf:RDF></metadata><defs
     id="defs838"><clipPath
       clipPathUnits="userSpaceOnUse"
       id="clipPath852"><path
         d="M 0,240 H 240 V 0 H 0 Z"
         id="path850"
         inkscape:connector-curvature="0" /></clipPath></defs><sodipodi:namedview
     pagecolor="#ffffff"
     bordercolor="#666666"
     borderopacity="1"
     objecttolerance="10"
     gridtolerance="10"
     guidetolerance="10"
     inkscape:pageopacity="0"
     inkscape:pageshadow="2"
     inkscape:window-width="1366"
     inkscape:window-height="704"
     id="namedview836"
     showgrid="false"
     inkscape:zoom="1.1203223"
     inkscape:cx="-44.815991"
     inkscape:cy="83.793684"
     inkscape:window-x="0"
     inkscape:window-y="27"
     inkscape:window-maximized="1"
     inkscape:current-layer="g842" /><g
     id="g842"
     inkscape:groupmode="layer"
     inkscape:label="handv2"
     transform="matrix(1.3333333,0,0,-1.3333333,0,320)"><g
       id="g862"
       transform="translate(75.86138,-1)"><path
         d="m 0,0 c -0.347,3.426 -1.702,17.958 0.662,29 0.514,2.398 1.482,5.937 3.973,9.25 1.315,1.75 3.275,4.356 5.738,4.5 3.355,0.195 7.431,-3.036 13.022,-5.75 9.27,-4.5 12.167136,-5.800627 16.773,-8 6.726686,-2.869822 7.436746,-2.869822 13.968746,-6.119822 C 60.746746,19.591178 67.328,18.717 71.067,13 72.011,11.558 74.283,7.48 73.495,0"
         style="fill:#ff0000;fill-opacity:1;fill-rule:nonzero;stroke:#000000;stroke-width:8;stroke-linecap:butt;stroke-linejoin:miter;stroke-miterlimit:10;stroke-dasharray:none;stroke-opacity:1"
         id="path864"
         inkscape:connector-curvature="0"
         sodipodi:nodetypes="ccccccccc" /></g><g
       id="g858"
       transform="translate(148.26958,14.75)"
       style="fill:#ffffff;fill-opacity:1"><path
         d="m 0,0 c -36.179,20.124 -50.75,20.25 -54.75,24.25 -0.375,0.375 -2.75,2.057 -4.75,3.25 -4.038,2.409 -5.125,7.724 -5.75,11 -0.887,4.649 -0.568,8.14 -0.5,9.75 0.426,10.105 -5.961,19.288 -8.75,22.5 -12.67,14.592 -38.221,6.304 -42.5,18.5 -0.414,1.178 -0.491,2.155 -0.5,2.75 -0.152,9.569 12.78876,14.93515 26.659763,14.59615 C -73.329237,106.16815 -59.97,93.092 -53.5,97 c 2.273,1.373 2.451,4.639 2.75,8.5 1.785,23.051 3.422,41.877 13,52.25 4.105,4.446 8.164509,3.579 12.343195,0.55325 C -21.140162,154.08299 -20.065491,149.69023 -22,123 c -1.367,-12.832 -2.924,-24.747 -1.75,-25 2.287,-0.493 21.893,57.795 38.5,60 3.441,0.457 7.487,-0.919 9.75,-3.75 C 34.55,141.675 -7.991,91.66 -5.25,89.75 6.0637103,88.749746 25.222192,120.26481 41.847251,120.06385 46.757133,119.61497 49.4,117.12125 48.5,109.84725 46.773,95.889251 21.867,79.271 23.25,74.25 c 1.028,-3.736 21.094,6.098 31,6 6.102,-0.06 8,-9 5.75,-14 C 57.247,60.134 38.89,50.887 22.5,42.5 19.853,41.146 13.972,38.295 9.5,32 6.552,27.851 5.326,23.768 3.5,17.5 2.246,13.197 0.823,7.267 0,0 Z"
         style="fill:#ffffff;fill-opacity:1;stroke:#000000;stroke-width:8;stroke-linecap:butt;stroke-linejoin:miter;stroke-miterlimit:10;stroke-dasharray:none;stroke-opacity:1"
         id="path860"
         inkscape:connector-curvature="0"
         sodipodi:nodetypes="cscccccccccccccccccsccccccc" /></g><g
       id="g874"
       transform="translate(149.01958,82)"><path
         d="M 0,0 V 0 C -0.275,0 -0.5,0.225 -0.5,0.5 -0.5,0.775 -0.275,1 0,1 0.275,1 0.5,0.775 0.5,0.5 0.5,0.225 0.275,0 0,0"
         style="fill:#ff0000;fill-opacity:1;fill-rule:nonzero;stroke:none"
         id="path876"
         inkscape:connector-curvature="0" /></g><g
       id="g882"
       transform="translate(104.52738,73.9609)"><path
         d="m -1.8934912,-0.47337279 c 0,0 1.41211845,-9.69472821 28.2443552,-21.86874521"
         style="fill:#ff0000;fill-opacity:1;fill-rule:nonzero;stroke:#000000;stroke-width:8;stroke-linecap:round;stroke-linejoin:miter;stroke-miterlimit:10;stroke-dasharray:none;stroke-opacity:1"
         id="path884"
         inkscape:connector-curvature="0"
         sodipodi:nodetypes="cc" /></g><circle
       style="fill:#000000;fill-opacity:1;stroke:#000000;stroke-width:0;stroke-miterlimit:4;stroke-dasharray:none;stroke-opacity:1"
       id="path888-6"
       cx="118.0703"
       cy="96.490669"
       r="4.4999995" /><circle
       style="fill:#000000;fill-opacity:1;stroke:#000000;stroke-width:0;stroke-miterlimit:4;stroke-dasharray:none;stroke-opacity:1"
       id="path888"
       cx="146.70006"
       cy="80.180473"
       r="4.4999995" /></g></svg>