<svg width="888" height="556" viewBox="0 0 888 556" fill="none" xmlns="http://www.w3.org/2000/svg">
<rect width="888" height="556" fill="#fafafa"/>
<rect width="333" height="556" fill="#EEEEEE"/>
<rect x="78" y="86" width="176" height="46" fill="#555555"/>
<rect x="78" y="146" width="93" height="15" fill="#C4C4C4"/>
<rect x="225" y="146" width="29" height="15" fill="#C4C4C4"/>
<rect x="78" y="173" width="71" height="15" fill="#C4C4C4"/>
<rect x="225" y="173" width="29" height="15" fill="#C4C4C4"/>
<rect x="78" y="200" width="105" height="15" fill="#C4C4C4"/>
<rect x="225" y="200" width="29" height="15" fill="#C4C4C4"/>
<rect x="161" y="244" width="93" height="15" fill="#C4C4C4"/>
<rect x="61" y="229" width="210" height="1" fill="#DEDEDE"/>
<rect x="411" y="86" width="46" height="46" fill="#555555"/>
<rect x="711" y="431" width="100" height="40" fill="#00AAC4"/>
<rect x="411" y="155" width="284" height="46" fill="#EEEEEE"/>
<rect x="719" y="155" width="92" height="46" fill="#EEEEEE"/>
<rect x="411" y="224" width="400" height="46" fill="#EEEEEE"/>
<path d="M411 293H811V339H411V293Z" fill="#EEEEEE"/>
<rect x="411" y="362" width="188" height="46" fill="#EEEEEE"/>
<rect x="623" y="362" width="188" height="46" fill="#EEEEEE"/>
</svg>
